<svg width="40" height="40" viewBox="0 0 40 40" fill="none" xmlns="http://www.w3.org/2000/svg">
<g id="collapse-right_svgrepo.com">
<path id="Vector" d="M5 32.5C3.61925 32.5 2.5 31.3807 2.5 30V10C2.5 8.61925 3.61925 7.5 5 7.5C6.38075 7.5 7.5 8.61925 7.5 10V30C7.5 31.3807 6.38075 32.5 5 32.5ZM18.2322 29.2678L8.9645 20L18.2322 10.7323C19.2085 9.756 20.7915 9.756 21.7677 10.7323C22.7441 11.7085 22.7441 13.2915 21.7677 14.2677L18.5355 17.5H35C36.3807 17.5 37.5 18.6193 37.5 20C37.5 21.3807 36.3807 22.5 35 22.5H18.5355L21.7678 25.7322C22.7441 26.7085 22.7441 28.2915 21.7678 29.2678C20.7915 30.2441 19.2085 30.2441 18.2322 29.2678Z" fill="#87695F"/>
</g>
</svg>
