<svg width="40" height="40" viewBox="0 0 40 40" fill="none" xmlns="http://www.w3.org/2000/svg">
<g id="Pieces SVG" clip-path="url(#clip0_8_235)">
<g id="SVGRepo_iconCarrier">
<g id="Group">
<g id="Group_2">
<path id="Vector" d="M16.1292 2.58067H21.9355L23.871 5.80654V18.0645L25.8065 15.4839V5.16131L23.2259 0.645264H18.7098L16.1292 1.29035V2.58067Z" fill="#F1D9BD" stroke="black" stroke-width="0.220214"/>
<path id="Vector_2" d="M36.7741 15.4839H27.7419V16.7742H36.7741V15.4839Z" fill="#F1D9BD" stroke="black" stroke-width="0.220214"/>
<path id="Vector_3" d="M35.4838 4.51611H29.0322V7.09675H35.4838V4.51611Z" fill="#F1D9BD" stroke="black" stroke-width="0.220214"/>
<path id="Vector_4" d="M33.5484 2.58057H30.9678V10.3225H33.5484V2.58057Z" fill="#F1D9BD" stroke="black" stroke-width="0.220214"/>
<path id="Vector_5" d="M7.74204 18.0645C8.45466 18.0645 9.03236 17.4868 9.03236 16.7742C9.03236 16.0616 8.45466 15.4839 7.74204 15.4839C7.02942 15.4839 6.45172 16.0616 6.45172 16.7742C6.45172 17.4868 7.02942 18.0645 7.74204 18.0645Z" fill="#F1D9BD" stroke="black" stroke-width="0.220214"/>
<path id="Vector_6" d="M39.2388 35.4838L38.893 33.7554C38.7329 32.9553 38.2711 32.2651 37.5607 31.7915C37.2563 31.5889 37.0401 31.2967 36.9097 30.9676H38.0646V29.6773H36.7743H36.5904C35.9845 27.8896 35.615 25.6825 35.5097 23.2257H36.7743V21.9354H35.484V20.6451H36.7743V19.3548H35.9782L37.1434 17.4122C37.324 17.1116 37.4195 16.767 37.4195 16.4167V13.5484C37.4195 12.4813 36.5512 11.6129 35.484 11.6129H34.8389V9.67746H34.1936V7.74191H36.1291V3.87096H34.1936V1.93555H30.3227V3.87109H28.3871V7.74191H30.3226V9.67746H29.6773V11.613H29.0321C27.965 11.613 27.0967 12.4813 27.0967 13.5485V16.417C27.0967 16.7673 27.1922 17.1118 27.3728 17.4132L28.538 19.355H27.7419V20.6451H29.0322V21.9354H27.7419V23.2257H29.0064C28.9012 25.6825 28.5315 27.8896 27.9257 29.6773H27.7418H26.4515V30.9676H27.6044C27.4715 31.2992 27.2484 31.5966 26.9244 31.8128C26.245 32.2658 25.7824 32.9555 25.6225 33.7561L25.2773 35.4838H24.5161V40H39.9999V35.4838H39.2388ZM29.6775 6.45159V5.16127H31.6129V3.22587H32.9032V5.16127H34.8386V6.45159H32.9032V9.67746H31.6129V6.45159H29.6775ZM30.9678 10.9678H33.5484V11.613H30.9678V10.9678ZM28.3871 16.4167V13.5484C28.3871 13.1929 28.6769 12.9032 29.0322 12.9032H29.6775H34.8387H35.4838C35.8393 12.9032 36.1291 13.1929 36.1291 13.5484V16.4168C36.1291 16.5336 36.0974 16.6485 36.0368 16.7491L34.4736 19.3549H30.0433L28.4795 16.7491C28.4188 16.6483 28.3871 16.5336 28.3871 16.4167ZM30.3226 20.6451H34.1935V21.9354H30.3226V20.6451ZM30.2975 23.2257H34.2188C34.3182 25.638 34.6615 27.8411 35.2292 29.6773H29.2867C29.8556 27.8411 30.1981 25.638 30.2975 23.2257ZM26.8884 34.0089C26.9814 33.5463 27.2485 33.1476 27.6717 32.8657C28.3414 32.4193 28.7988 31.7367 28.964 30.9683H35.5524C35.7188 31.7374 36.1814 32.4238 36.8756 32.8871C37.2678 33.1483 37.535 33.547 37.6279 34.0096L37.9227 35.4838H26.5938L26.8884 34.0089ZM38.7097 38.7095H25.8065V36.774H38.7097V38.7095Z" fill="#87695F" stroke="black" stroke-width="0.220214"/>
<path id="Vector_7" d="M32.9032 15.4839H31.6129V16.7742H32.9032V15.4839Z" fill="#87695F" stroke="black" stroke-width="0.220214"/>
<path id="Vector_8" d="M35.4838 15.4839H34.1935V16.7742H35.4838V15.4839Z" fill="#87695F" stroke="black" stroke-width="0.220214"/>
<path id="Vector_9" d="M30.3225 15.4839H29.0322V16.7742H30.3225V15.4839Z" fill="#87695F" stroke="black" stroke-width="0.220214"/>
<path id="Vector_10" d="M15.702 9.19216L13.5485 11.3457V15.6625L14.9898 18.0645H14.1938V19.3548H15.3467C15.2138 19.6863 14.9907 19.9838 14.6667 20.2C13.9873 20.6529 13.5247 21.3426 13.3648 22.1432L13.0196 23.871H12.2584V28.3871H27.7422V23.871H26.9809L26.6352 22.1425C26.4751 21.3425 26.0132 20.6522 25.3029 20.1786C24.9984 19.9761 24.7822 19.6839 24.6519 19.3548H25.8068V18.0645H25.0107L26.452 15.6625V4.98964L23.6001 0H18.7098L15.4839 0.78644V2.05157L12.5349 2.6412L10.2343 5.70961L11.8472 9.74256L15.702 9.19216ZM26.4516 27.0967H13.5484V25.1611H26.4516V27.0967ZM24.6175 21.2735C25.0097 21.5348 25.2769 21.9335 25.3698 22.3961L25.6646 23.871H14.3357L14.6305 22.3961C14.7234 21.9335 14.9905 21.5348 15.4138 21.2529C16.0835 20.8071 16.5408 20.1239 16.706 19.3555H23.2944C23.4607 20.1244 23.9239 20.8109 24.6175 21.2735ZM13.2718 3.81026L16.7743 3.10956V1.79406L17.504 1.61142L18.133 2.86884L19.2872 2.29147L18.7865 1.29018H18.7891H20.3949L20.0329 2.37666L21.2567 2.78502L21.7554 1.29018H22.8515L23.7205 2.81076L22.3767 3.25848L22.785 4.48232L24.3734 3.95271L25.1611 5.33276V5.98625L23.667 6.48435L24.0753 7.70819L25.1611 7.3469V9.67718H23.8708V10.9675H25.1611V12.9032H23.8708V14.1935H25.1611V15.3052L23.5057 18.0645H16.494L15.3328 16.1289H20.6452V14.8386H14.8389V11.88L17.4195 9.29937V7.64323L12.6692 8.3219L11.7015 5.90326L13.2718 3.81026Z" fill="#87695F" stroke="black" stroke-width="0.220214"/>
<path id="Vector_11" d="M23.2259 14.8386H21.9355V16.1289H23.2259V14.8386Z" fill="#87695F" stroke="black" stroke-width="0.220214"/>
<path id="Vector_12" d="M18.7098 3.87085H17.4195V5.16117H18.7098V3.87085Z" fill="#87695F" stroke="black" stroke-width="0.220214"/>
<path id="Vector_13" d="M14.3769 33.7555C14.2169 32.9554 13.7549 32.2652 13.0446 31.7916C12.7401 31.589 12.5239 31.2968 12.3936 30.9677H13.5485V29.6774H12.2581H12.0743C11.4684 27.8897 11.0988 25.6826 10.9936 23.2258H12.258V21.9355H10.9677V19.9291C11.7644 19.1143 12.258 18.0014 12.258 16.7742C12.258 14.2839 10.2322 12.2581 7.74195 12.2581C5.25174 12.2581 3.22591 14.2839 3.22591 16.7742C3.22591 18.0014 3.71946 19.1143 4.51623 19.9291V21.9355H3.22591V23.2258H4.49035C4.3852 25.6826 4.01552 27.8897 3.40965 29.6774H3.22577H1.93545V30.9677H3.08841C2.95546 31.2993 2.73235 31.5967 2.40836 31.8129C1.729 32.2659 1.26641 32.9556 1.10648 33.7562L0.761299 35.4839H0.000183105V40.0001H15.484V35.4839H14.7227L14.3769 33.7555ZM7.74209 13.5485C9.52073 13.5485 10.9678 14.9956 10.9678 16.7744C10.9678 18.5532 9.52073 20.0002 7.74209 20.0002C5.96345 20.0002 4.51637 18.5532 4.51637 16.7744C4.51637 14.9956 5.96345 13.5485 7.74209 13.5485ZM5.80668 20.8485C6.39438 21.1291 7.04855 21.2904 7.74209 21.2904C8.43563 21.2904 9.0898 21.1291 9.6775 20.8485V21.9355H5.80668V20.8485ZM5.7815 23.2258H9.70282C9.8022 25.6381 10.1455 27.8412 10.7132 29.6774H4.77113C5.33955 27.8412 5.68212 25.6381 5.7815 23.2258ZM2.37244 34.009C2.46534 33.5464 2.73249 33.1477 3.15572 32.8658C3.82544 32.4194 4.2828 31.7368 4.44796 30.9684H11.0364C11.2028 31.7375 11.6653 32.4239 12.3596 32.8872C12.7518 33.1484 13.019 33.5471 13.1119 34.0097L13.4067 35.4839H2.07763L2.37244 34.009ZM14.1937 38.7096H1.2905V36.7741H14.1937V38.7096Z" fill="#87695F" stroke="black" stroke-width="0.220214"/>
</g>
</g>
</g>
</g>
<defs>
<clipPath id="clip0_8_235">
<rect width="40" height="40" fill="white"/>
</clipPath>
</defs>
</svg>
