<svg width="40" height="40" viewBox="0 0 40 40" fill="none" xmlns="http://www.w3.org/2000/svg">
<g id="puzzle-piece_svgrepo.com">
<path id="Vector" d="M10.2313 18.6875C10.1 18.5562 2.10938 16.7969 2.10938 16.7969C2.10938 16.7969 1.64376 17.5437 1.77813 17.9844C1.85313 18.2312 3.59688 20.2594 5.39063 22.125C6.80626 23.6 8.41563 25.1 8.65001 25.9562C9.00938 27.275 9.04688 29.3906 9.04688 29.3906L3.83751 32.5719C3.83751 32.5719 4.47501 35.8156 8.60626 35.6875C12.4656 35.5687 12.6656 31.4812 13.8906 31.4594C14.0969 31.4562 14.3813 31.3844 14.8906 31.9312C16.1531 33.2875 18.5156 35.9062 19.3063 36.7C20.3625 37.7563 21.1125 38.8125 21.5094 38.7687C21.9063 38.725 25.2531 35.7312 26.2219 34.8062C27.1906 33.8812 28.0719 32.7813 28.0719 31.8563C28.0719 30.9313 26.7063 30.2281 26.7063 30.2281L19.175 31.1094L10.2313 18.6875Z" fill="#B0B0AF"/>
<path id="Vector_2" d="M32.3812 6.75635C32.5125 6.75635 35.8594 5.08447 35.8594 5.08447C35.8594 5.08447 37.5781 8.5626 35.375 10.5438C33.1719 12.5251 32.6875 11.4032 31.6312 12.5688C30.825 13.4595 31.2344 15.3001 31.2344 15.3001L37.7812 21.5938C37.7812 21.5938 38.1469 22.2595 37.8844 22.7438C37.6969 23.0876 35.4937 25.5532 33.7875 27.3251C33.0187 28.122 31.9469 28.3907 31.3656 28.2501C29.9125 27.897 29.6937 26.7532 29.4281 24.7282C29.1625 22.7032 27.4187 22.7345 26.7844 22.8345C25.4469 23.047 24.575 23.8282 24.575 23.8282C24.575 23.8282 16.7 14.3376 16.7875 14.072C16.875 13.8063 17.1844 11.8251 16.2594 10.9907C15.3344 10.1532 13.4875 9.72822 12.7812 9.24385C12.0781 8.75947 11.9844 7.8376 12.1125 6.94385C12.2406 6.0501 17.9344 6.05947 17.9344 6.05947C17.9344 6.05947 27.7531 11.4751 27.8 11.2563C27.8437 11.0251 32.3812 6.75635 32.3812 6.75635Z" fill="#B0B0AF"/>
<path id="Vector_3" d="M27.5375 7.80942C27.775 6.94067 27.5031 4.8063 29.1625 3.3938C30.8219 1.9813 33.4031 2.1563 34.9562 3.64067C36.5094 5.12505 36.7594 7.91567 34.9219 9.75317C33.0844 11.5907 32.2375 10.5657 31.2125 11.5563C30.1875 12.5469 30.3656 13.3594 31 13.9594C31.6375 14.5594 37.9625 21.1688 37.7844 21.5907C37.6062 22.0125 33.2969 26.8907 32.5906 27.2438C31.8844 27.5969 30.6469 27.5625 30.4 26.3969C30.1531 25.2313 30.5781 22.9 28.8094 22.2969C27.0437 21.6969 26.2656 22.1907 24.5344 24.0282C22.8031 25.8657 22.025 27.8782 23.4375 28.9032C24.85 29.9282 26.6187 29.5032 27.325 30.7063C28.0312 31.9094 26.9719 33.0032 25.1 34.7344C23.2281 36.4657 21.7781 37.8782 21.5312 37.7032C21.2844 37.525 15.9125 31.8375 15.3844 31.2375C14.8531 30.6375 13.8281 30.1063 12.8406 31.025C11.85 31.9438 11.675 34.9469 7.50624 34.9469C3.33749 34.9469 2.83749 30.425 4.32186 28.5532C5.80624 26.6813 9.09061 26.5032 9.16249 25.2313C9.19374 24.6469 7.39061 23.0719 5.77186 21.3813C3.86874 19.3907 2.09999 17.2813 2.02499 17.0344C1.88436 16.575 5.98124 12.5469 6.75936 11.9813C7.53749 11.4157 8.41874 11.7688 8.84374 12.2282C9.26874 12.6875 9.37499 14.1 9.72811 14.9125C10.0812 15.725 11.7406 19.2594 15.7344 15.2313C19.6906 11.2375 15.9469 9.5063 14.675 9.15317C13.4031 8.80005 12.4875 8.68442 12.1312 7.38755C11.85 6.36255 13.4031 5.16255 15.0281 3.6063C16.6531 2.05005 17.6062 1.23755 18.0312 1.23755C18.4562 1.23755 24.1437 7.35005 24.8875 8.0563C25.6312 8.76255 26.0875 8.94067 26.6187 8.79692C27.1469 8.65942 27.4312 8.20005 27.5375 7.80942Z" fill="url(#paint0_radial_8_227)"/>
</g>
<defs>
<radialGradient id="paint0_radial_8_227" cx="0" cy="0" r="1" gradientUnits="userSpaceOnUse" gradientTransform="translate(19.4287 -8.8437) scale(37.2578 37.2578)">
<stop offset="0.508" stop-color="#F1D9BD"/>
<stop offset="0.981" stop-color="#87695F"/>
</radialGradient>
</defs>
</svg>
